<?xml version="1.0" encoding="iso-8859-1"?>
<!-- Uploaded to: SVG Repo, www.svgrepo.com, Generator: SVG Repo Mixer Tools -->
<!DOCTYPE svg PUBLIC "-//W3C//DTD SVG 1.1//EN" "http://www.w3.org/Graphics/SVG/1.1/DTD/svg11.dtd">
<svg fill="#000000" version="1.1" id="Capa_1" xmlns="http://www.w3.org/2000/svg" xmlns:xlink="http://www.w3.org/1999/xlink" 
	 width="800px" height="800px" viewBox="0 0 536.782 536.782"
	 xml:space="preserve">
<g>
	<g>
		<path d="M536.782,281.815c0-31.803-25.444-57.614-57.078-58.312c4.7-15.331,7.243-31.604,7.243-48.473
			c0-91.219-73.945-165.164-165.164-165.164c-90.11,0-163.315,72.173-165.081,161.862c-16.582-13.926-37.959-22.326-61.307-22.326
			C42.708,149.403,0,192.115,0,244.799c0,52.684,42.711,95.396,95.396,95.396h219.268h7.117H478.4
			C510.646,340.191,536.782,314.056,536.782,281.815z"/>
		<rect x="76.852" y="370.556" width="45.9" height="101.279"/>
		<rect x="189.246" y="425.636" width="45.9" height="101.279"/>
		<rect x="301.64" y="370.556" width="45.899" height="101.279"/>
		<rect x="414.033" y="425.636" width="45.9" height="101.279"/>
	</g>
</g>
</svg>